<svg xmlns="http://www.w3.org/2000/svg" xmlns:xlink="http://www.w3.org/1999/xlink" id="processonSvg1000" viewBox="213.0 153.0 356.0 76.0" width="356.0" height="76.0"><defs id="ProcessOnDefs1001"><marker id="ProcessOnMarker1015" markerUnits="userSpaceOnUse" orient="auto" markerWidth="14.289086868996552" markerHeight="19.055054660878554" viewBox="-0.5877852522924731 -0.8090169943749475 14.289086868996552 19.055054660878554" refX="12.0" refY="8.71851033606433"><path id="ProcessOnPath1016" d="M0 0L12.0 8.71851033606433L0 17.43702067212866" stroke="#323232" stroke-width="2.0" fill="none" transform="matrix(1.0,0.0,0.0,1.0,0.0,0.0)"/></marker></defs><g id="ProcessOnG1002"><path id="ProcessOnPath1003" d="M213.0 153.0H569.0V229.0H213.0V153.0Z" fill="none"/><g id="ProcessOnG1004"><g id="ProcessOnG1005" transform="matrix(1.0,0.0,0.0,1.0,233.0,173.0)" opacity="1.0"><path id="ProcessOnPath1006" d="M0.0 0.0L100.0 0.0L100.0 36.0L0.0 36.0Z" stroke="#323232" stroke-width="2.0" stroke-dasharray="none" opacity="1.0" fill="#ffffff"/><g id="ProcessOnG1007" transform="matrix(1.0,0.0,0.0,1.0,10.0,8.0)"><text id="ProcessOnText1008" fill="#000000" font-size="16" x="39.0" y="16.4" font-family="微软雅黑" font-weight="normal" font-style="normal" text-decoration="none" family="微软雅黑" text-anchor="middle" size="16">客户</text></g></g><g id="ProcessOnG1009" transform="matrix(1.0,0.0,0.0,1.0,449.0,173.0)" opacity="1.0"><path id="ProcessOnPath1010" d="M0.0 0.0L100.0 0.0L100.0 36.0L0.0 36.0Z" stroke="#323232" stroke-width="2.0" stroke-dasharray="none" opacity="1.0" fill="#ffffff"/><g id="ProcessOnG1011" transform="matrix(1.0,0.0,0.0,1.0,10.0,8.0)"><text id="ProcessOnText1012" fill="#000000" font-size="16" x="39.0" y="16.4" font-family="微软雅黑" font-weight="normal" font-style="normal" text-decoration="none" family="微软雅黑" text-anchor="middle" size="16">提供者</text></g></g><g id="ProcessOnG1013"><path id="ProcessOnPath1014" d="M333.0 191.0L391.0 191.0L391.0 191.0L449.0 191.0" stroke="#323232" stroke-width="2.0" stroke-dasharray="10.0 4.0" fill="none" marker-end="url(#ProcessOnMarker1015)"/><g id="ProcessOnG1017" transform="matrix(1.0,0.0,0.0,1.0,391.0,181.0)"><path id="ProcessOnPath1018" d="M0 0H32.0V20.0H0Z" fill="#fff" transform="matrix(1.0,0.0,0.0,1.0,-16.0,0.0)"/><text id="ProcessOnText1019" fill="#000000" font-size="16" x="0.0" y="16.4" font-family="微软雅黑" font-weight="normal" font-style="normal" text-decoration="none" family="微软雅黑" text-anchor="middle" size="16">依赖</text></g></g></g></g></svg>