<svg xmlns="http://www.w3.org/2000/svg" xmlns:xlink="http://www.w3.org/1999/xlink" id="processonSvg1000" viewBox="162.5 339.0 898.5 392.0" width="898.5" height="392.0"><defs id="ProcessOnDefs1001"><marker id="ProcessOnMarker1046" markerUnits="userSpaceOnUse" orient="auto" markerWidth="16.23606797749979" markerHeight="10.550836550532098" viewBox="-1.0 -1.3763819204711736 16.23606797749979 10.550836550532098" refX="-1.0" refY="3.8990363547948754"><path id="ProcessOnPath1047" d="M12.0 3.8990363547948754L0.0 7.798072709589751V0.0Z" stroke="#323232" stroke-width="2.0" fill="#323232" transform="matrix(1.0,0.0,0.0,1.0,0.0,0.0)"/></marker><marker id="ProcessOnMarker1050" markerUnits="userSpaceOnUse" orient="auto" markerWidth="16.23606797749979" markerHeight="10.550836550532098" viewBox="-1.0 -1.3763819204711736 16.23606797749979 10.550836550532098" refX="-1.0" refY="3.8990363547948754"><path id="ProcessOnPath1051" d="M12.0 3.8990363547948754L0.0 7.798072709589751V0.0Z" stroke="#323232" stroke-width="2.0" fill="#323232" transform="matrix(1.0,0.0,0.0,1.0,0.0,0.0)"/></marker><marker id="ProcessOnMarker1054" markerUnits="userSpaceOnUse" orient="auto" markerWidth="16.23606797749979" markerHeight="10.550836550532098" viewBox="-1.0 -1.3763819204711736 16.23606797749979 10.550836550532098" refX="-1.0" refY="3.8990363547948754"><path id="ProcessOnPath1055" d="M12.0 3.8990363547948754L0.0 7.798072709589751V0.0Z" stroke="#323232" stroke-width="2.0" fill="#323232" transform="matrix(1.0,0.0,0.0,1.0,0.0,0.0)"/></marker><marker id="ProcessOnMarker1062" markerUnits="userSpaceOnUse" orient="auto" markerWidth="16.23606797749979" markerHeight="10.550836550532098" viewBox="-1.0 -1.3763819204711736 16.23606797749979 10.550836550532098" refX="-1.0" refY="3.8990363547948754"><path id="ProcessOnPath1063" d="M12.0 3.8990363547948754L0.0 7.798072709589751V0.0Z" stroke="#323232" stroke-width="2.0" fill="#323232" transform="matrix(1.0,0.0,0.0,1.0,0.0,0.0)"/></marker><marker id="ProcessOnMarker1077" markerUnits="userSpaceOnUse" orient="auto" markerWidth="16.23606797749979" markerHeight="10.550836550532098" viewBox="-1.0 -1.3763819204711736 16.23606797749979 10.550836550532098" refX="-1.0" refY="3.8990363547948754"><path id="ProcessOnPath1078" d="M12.0 3.8990363547948754L0.0 7.798072709589751V0.0Z" stroke="#323232" stroke-width="2.0" fill="#323232" transform="matrix(1.0,0.0,0.0,1.0,0.0,0.0)"/></marker></defs><g id="ProcessOnG1002"><path id="ProcessOnPath1003" d="M162.5 339.0H1061.0V731.0H162.5V339.0Z" fill="none"/><g id="ProcessOnG1004"><g id="ProcessOnG1005" transform="matrix(1.0,0.0,0.0,1.0,473.0,508.0)" opacity="1.0"><path id="ProcessOnPath1006" d="M0.0 0.0L120.0 0.0L120.0 32.0L0.0 32.0Z" stroke="#323232" stroke-width="2.0" stroke-dasharray="none" opacity="1.0" fill="#ffffff"/><g id="ProcessOnG1007" transform="matrix(1.0,0.0,0.0,1.0,10.0,7.875)"><text id="ProcessOnText1008" fill="#000000" font-size="13" x="49.0" y="13.325" font-family="微软雅黑" font-weight="normal" font-style="normal" text-decoration="none" family="微软雅黑" text-anchor="middle" size="13">GoCN's Crawler</text></g></g><g id="ProcessOnG1009" transform="matrix(1.0,0.0,0.0,1.0,302.5,359.0)" opacity="1.0"><path id="ProcessOnPath1010" d="M11.0 0.0L11.0 352.0" stroke="#323232" stroke-width="2.0" stroke-dasharray="none" opacity="1.0" fill="none"/><path id="ProcessOnPath1011" d="M0.0 0.0L21.0 0.0L21.0 352.0L0.0 352.0Z" stroke="none" stroke-width="0.0" stroke-dasharray="none" opacity="1.0" fill="none"/></g><g id="ProcessOnG1012" transform="matrix(1.0,0.0,0.0,1.0,182.5,504.0)" opacity="1.0"><path id="ProcessOnPath1013" d="M0.0 0.0L120.0 0.0L120.0 32.0L0.0 32.0Z" stroke="#323232" stroke-width="2.0" stroke-dasharray="none" opacity="1.0" fill="#ffffff"/><g id="ProcessOnG1014" transform="matrix(1.0,0.0,0.0,1.0,10.0,7.875)"><text id="ProcessOnText1015" fill="#000000" font-size="13" x="49.0" y="13.325" font-family="微软雅黑" font-weight="normal" font-style="normal" text-decoration="none" family="微软雅黑" text-anchor="middle" size="13">crontab</text></g></g><g id="ProcessOnG1016" transform="matrix(1.0,0.0,0.0,1.0,182.5,378.0)" opacity="1.0"><path id="ProcessOnPath1017" d="M0.0 0.0L120.0 0.0L120.0 32.0L0.0 32.0Z" stroke="none" stroke-width="0.0" stroke-dasharray="none" opacity="1.0" fill="none"/><g id="ProcessOnG1018" transform="matrix(1.0,0.0,0.0,1.0,0.0,7.875)"><text id="ProcessOnText1019" fill="#000000" font-size="13" x="59.0" y="13.325" font-family="微软雅黑" font-weight="normal" font-style="normal" text-decoration="none" family="微软雅黑" text-anchor="middle" size="13">Plugins</text></g></g><g id="ProcessOnG1020" transform="matrix(1.0,0.0,0.0,1.0,605.0,508.0)" opacity="1.0"><path id="ProcessOnPath1021" d="M0.0 0.0L120.0 0.0L120.0 32.0L0.0 32.0Z" stroke="#323232" stroke-width="2.0" stroke-dasharray="none" opacity="1.0" fill="#ffffff"/><g id="ProcessOnG1022" transform="matrix(1.0,0.0,0.0,1.0,10.0,-0.25)"><text id="ProcessOnText1023" fill="#000000" font-size="13" x="49.0" y="13.325" font-family="微软雅黑" font-weight="normal" font-style="normal" text-decoration="none" family="微软雅黑" text-anchor="middle" size="13">Segment's </text><text id="ProcessOnText1024" fill="#000000" font-size="13" x="49.0" y="29.575" font-family="微软雅黑" font-weight="normal" font-style="normal" text-decoration="none" family="微软雅黑" text-anchor="middle" size="13">Crawler</text></g></g><g id="ProcessOnG1025" transform="matrix(1.0,0.0,0.0,1.0,736.0,508.0)" opacity="1.0"><path id="ProcessOnPath1026" d="M0.0 0.0L120.0 0.0L120.0 32.0L0.0 32.0Z" stroke="#323232" stroke-width="2.0" stroke-dasharray="none" opacity="1.0" fill="#ffffff"/><g id="ProcessOnG1027" transform="matrix(1.0,0.0,0.0,1.0,10.0,7.875)"><text id="ProcessOnText1028" fill="#000000" font-size="13" x="49.0" y="13.325" font-family="微软雅黑" font-weight="normal" font-style="normal" text-decoration="none" family="微软雅黑" text-anchor="middle" size="13">Vuejs's Crawler</text></g></g><g id="ProcessOnG1029" transform="matrix(1.0,0.0,0.0,1.0,182.5,446.0)" opacity="1.0"><path id="ProcessOnPath1030" d="M0.0 0.0L120.0 0.0L120.0 32.0L0.0 32.0Z" stroke="#323232" stroke-width="2.0" stroke-dasharray="none" opacity="1.0" fill="#ffffff"/><g id="ProcessOnG1031" transform="matrix(1.0,0.0,0.0,1.0,10.0,7.875)"><text id="ProcessOnText1032" fill="#000000" font-size="13" x="49.0" y="13.325" font-family="微软雅黑" font-weight="normal" font-style="normal" text-decoration="none" family="微软雅黑" text-anchor="middle" size="13">config</text></g></g><g id="ProcessOnG1033" transform="matrix(1.0,0.0,0.0,1.0,315.0,577.0)" opacity="1.0"><path id="ProcessOnPath1034" d="M0.0 11.0L576.0 11.0" stroke="#323232" stroke-width="2.0" stroke-dasharray="none" opacity="1.0" fill="none"/><path id="ProcessOnPath1035" d="M0.0 0.0L576.0 0.0L576.0 21.0L0.0 21.0Z" stroke="none" stroke-width="0.0" stroke-dasharray="none" opacity="1.0" fill="none"/></g><g id="ProcessOnG1036" transform="matrix(1.0,0.0,0.0,1.0,539.0,648.0)" opacity="1.0"><path id="ProcessOnPath1037" d="M0.0 0.0L120.0 0.0L120.0 32.0L0.0 32.0Z" stroke="#323232" stroke-width="2.0" stroke-dasharray="none" opacity="1.0" fill="#ffffff"/><g id="ProcessOnG1038" transform="matrix(1.0,0.0,0.0,1.0,10.0,7.875)"><text id="ProcessOnText1039" fill="#000000" font-size="13" x="49.0" y="13.325" font-family="微软雅黑" font-weight="normal" font-style="normal" text-decoration="none" family="微软雅黑" text-anchor="middle" size="13">Database</text></g></g><g id="ProcessOnG1040" transform="matrix(1.0,0.0,0.0,1.0,539.0,389.0)" opacity="1.0"><path id="ProcessOnPath1041" d="M0.0 0.0L120.0 0.0L120.0 32.0L0.0 32.0Z" stroke="#323232" stroke-width="2.0" stroke-dasharray="none" opacity="1.0" fill="#ffffff"/><g id="ProcessOnG1042" transform="matrix(1.0,0.0,0.0,1.0,10.0,7.875)"><text id="ProcessOnText1043" fill="#000000" font-size="13" x="49.0" y="13.325" font-family="微软雅黑" font-weight="normal" font-style="normal" text-decoration="none" family="微软雅黑" text-anchor="middle" size="13">Filter</text></g></g><g id="ProcessOnG1044"><path id="ProcessOnPath1045" d="M599.0 421.0C599.0 464.6806593356831 533.0 464.3193406643169 533.0 492.7639320225002" stroke="#323232" stroke-width="2.0" stroke-dasharray="none" fill="none" marker-end="url(#ProcessOnMarker1046)"/></g><g id="ProcessOnG1048"><path id="ProcessOnPath1049" d="M599.0 421.0C599.0 464.6806593356831 665.0 464.3193406643169 665.0 492.7639320225002" stroke="#323232" stroke-width="2.0" stroke-dasharray="none" fill="none" marker-end="url(#ProcessOnMarker1050)"/></g><g id="ProcessOnG1052"><path id="ProcessOnPath1053" d="M599.0 421.0C599.0 507.14220800513533 796.0 421.85779199486467 796.0 492.7639320225002" stroke="#323232" stroke-width="2.0" stroke-dasharray="none" fill="none" marker-end="url(#ProcessOnMarker1054)"/></g><g id="ProcessOnG1056" transform="matrix(1.0,0.0,0.0,1.0,337.5,508.0)" opacity="1.0"><path id="ProcessOnPath1057" d="M0.0 0.0L120.0 0.0L120.0 32.0L0.0 32.0Z" stroke="#323232" stroke-width="2.0" stroke-dasharray="none" opacity="1.0" fill="#ffffff"/><g id="ProcessOnG1058" transform="matrix(1.0,0.0,0.0,1.0,10.0,7.875)"><text id="ProcessOnText1059" fill="#000000" font-size="13" x="49.0" y="13.325" font-family="微软雅黑" font-weight="normal" font-style="normal" text-decoration="none" family="微软雅黑" text-anchor="middle" size="13">Searcher</text></g></g><g id="ProcessOnG1060"><path id="ProcessOnPath1061" d="M599.0 421.0C599.0 508.7917991614251 397.5 420.2082008385749 397.5 492.7639320225002" stroke="#323232" stroke-width="2.0" stroke-dasharray="none" fill="none" marker-end="url(#ProcessOnMarker1062)"/></g><g id="ProcessOnG1064" transform="matrix(1.0,0.0,0.0,1.0,921.0,571.5)" opacity="1.0"><path id="ProcessOnPath1065" d="M0.0 0.0L120.0 0.0L120.0 32.0L0.0 32.0Z" stroke="#323232" stroke-width="2.0" stroke-dasharray="none" opacity="1.0" fill="#ffffff"/><g id="ProcessOnG1066" transform="matrix(1.0,0.0,0.0,1.0,10.0,7.875)"><text id="ProcessOnText1067" fill="#000000" font-size="13" x="49.0" y="13.325" font-family="微软雅黑" font-weight="normal" font-style="normal" text-decoration="none" family="微软雅黑" text-anchor="middle" size="13">Storer</text></g></g><g id="ProcessOnG1068" transform="matrix(1.0,0.0,0.0,1.0,921.0,446.0)" opacity="1.0"><path id="ProcessOnPath1069" d="M0.0 0.0L120.0 0.0L120.0 32.0L0.0 32.0Z" stroke="#323232" stroke-width="2.0" stroke-dasharray="none" opacity="1.0" fill="#ffffff"/><g id="ProcessOnG1070" transform="matrix(1.0,0.0,0.0,1.0,10.0,7.875)"><text id="ProcessOnText1071" fill="#000000" font-size="13" x="49.0" y="13.325" font-family="微软雅黑" font-weight="normal" font-style="normal" text-decoration="none" family="微软雅黑" text-anchor="middle" size="13">Collector</text></g></g><g id="ProcessOnG1072" transform="matrix(1.0,0.0,0.0,1.0,879.0,359.0)" opacity="1.0"><path id="ProcessOnPath1073" d="M11.0 0.0L11.0 352.0" stroke="#323232" stroke-width="2.0" stroke-dasharray="none" opacity="1.0" fill="none"/><path id="ProcessOnPath1074" d="M0.0 0.0L21.0 0.0L21.0 352.0L0.0 352.0Z" stroke="none" stroke-width="0.0" stroke-dasharray="none" opacity="1.0" fill="none"/></g><g id="ProcessOnG1075"><path id="ProcessOnPath1076" d="M659.0 405.0C784.5389268693273 405.0 871.7901934691736 458.0357085761775 918.4061959590673 558.0040485222455" stroke="#323232" stroke-width="2.0" stroke-dasharray="none" fill="none" marker-end="url(#ProcessOnMarker1077)"/></g></g></g></svg>