<svg xmlns="http://www.w3.org/2000/svg" xmlns:xlink="http://www.w3.org/1999/xlink" id="processonSvg1000" viewBox="132.0 140.0 686.0 342.0" width="686.0" height="342.0"><defs id="ProcessOnDefs1001"/><g id="ProcessOnG1002"><path id="ProcessOnPath1003" d="M132.0 140.0H818.0V482.0H132.0V140.0Z" fill="none"/><g id="ProcessOnG1004"><g id="ProcessOnG1005" transform="matrix(1.0,0.0,0.0,1.0,274.0,160.0)" opacity="1.0"><path id="ProcessOnPath1006" d="M0.0 16.0C0.0 -5.333333333333333 32.0 -5.333333333333333 32.0 16.0C32.0 37.333333333333336 0.0 37.333333333333336 0.0 16.0Z" stroke="#323232" stroke-width="2.0" stroke-dasharray="none" opacity="1.0" fill="#ffffff"/><g id="ProcessOnG1007" transform="matrix(1.0,0.0,0.0,1.0,10.0,7.875)"><text id="ProcessOnText1008" fill="#000000" font-size="13" x="5.0" y="13.325" font-family="微软雅黑" font-weight="normal" font-style="normal" text-decoration="none" family="微软雅黑" text-anchor="middle" size="13">6</text></g></g><g id="ProcessOnG1009" transform="matrix(1.0,0.0,0.0,1.0,184.0,201.0)" opacity="1.0"><path id="ProcessOnPath1010" d="M0.0 16.0C0.0 -5.333333333333333 32.0 -5.333333333333333 32.0 16.0C32.0 37.333333333333336 0.0 37.333333333333336 0.0 16.0Z" stroke="#323232" stroke-width="2.0" stroke-dasharray="none" opacity="1.0" fill="#ffffff"/><g id="ProcessOnG1011" transform="matrix(1.0,0.0,0.0,1.0,10.0,7.875)"><text id="ProcessOnText1012" fill="#000000" font-size="13" x="5.0" y="13.325" font-family="微软雅黑" font-weight="normal" font-style="normal" text-decoration="none" family="微软雅黑" text-anchor="middle" size="13">5</text></g></g><g id="ProcessOnG1013" transform="matrix(1.0,0.0,0.0,1.0,390.0,261.0)" opacity="1.0"><path id="ProcessOnPath1014" d="M0.0 16.0C0.0 -5.333333333333333 32.0 -5.333333333333333 32.0 16.0C32.0 37.333333333333336 0.0 37.333333333333336 0.0 16.0Z" stroke="#323232" stroke-width="2.0" stroke-dasharray="none" opacity="1.0" fill="#ffffff"/><g id="ProcessOnG1015" transform="matrix(1.0,0.0,0.0,1.0,10.0,7.875)"><text id="ProcessOnText1016" fill="#000000" font-size="13" x="5.0" y="13.325" font-family="微软雅黑" font-weight="normal" font-style="normal" text-decoration="none" family="微软雅黑" text-anchor="middle" size="13">8</text></g></g><g id="ProcessOnG1017" transform="matrix(1.0,0.0,0.0,1.0,152.0,261.0)" opacity="1.0"><path id="ProcessOnPath1018" d="M0.0 16.0C0.0 -5.333333333333333 32.0 -5.333333333333333 32.0 16.0C32.0 37.333333333333336 0.0 37.333333333333336 0.0 16.0Z" stroke="#323232" stroke-width="2.0" stroke-dasharray="none" opacity="1.0" fill="#ffffff"/><g id="ProcessOnG1019" transform="matrix(1.0,0.0,0.0,1.0,10.0,7.875)"><text id="ProcessOnText1020" fill="#000000" font-size="13" x="5.0" y="13.325" font-family="微软雅黑" font-weight="normal" font-style="normal" text-decoration="none" family="微软雅黑" text-anchor="middle" size="13">2</text></g></g><g id="ProcessOnG1021" transform="matrix(1.0,0.0,0.0,1.0,216.0,261.0)" opacity="1.0"><path id="ProcessOnPath1022" d="M0.0 16.0C0.0 -5.333333333333333 32.0 -5.333333333333333 32.0 16.0C32.0 37.333333333333336 0.0 37.333333333333336 0.0 16.0Z" stroke="#323232" stroke-width="2.0" stroke-dasharray="none" opacity="1.0" fill="#ffffff"/><g id="ProcessOnG1023" transform="matrix(1.0,0.0,0.0,1.0,10.0,7.875)"><text id="ProcessOnText1024" fill="#000000" font-size="13" x="5.0" y="13.325" font-family="微软雅黑" font-weight="normal" font-style="normal" text-decoration="none" family="微软雅黑" text-anchor="middle" size="13">5</text></g></g><g id="ProcessOnG1025" transform="matrix(1.0,0.0,0.0,1.0,358.0,201.0)" opacity="1.0"><path id="ProcessOnPath1026" d="M0.0 16.0C0.0 -5.333333333333333 32.0 -5.333333333333333 32.0 16.0C32.0 37.333333333333336 0.0 37.333333333333336 0.0 16.0Z" stroke="#323232" stroke-width="2.0" stroke-dasharray="none" opacity="1.0" fill="#ffffff"/><g id="ProcessOnG1027" transform="matrix(1.0,0.0,0.0,1.0,10.0,7.875)"><text id="ProcessOnText1028" fill="#000000" font-size="13" x="5.0" y="13.325" font-family="微软雅黑" font-weight="normal" font-style="normal" text-decoration="none" family="微软雅黑" text-anchor="middle" size="13">7</text></g></g><g id="ProcessOnG1029"><path id="ProcessOnPath1030" d="M276.71892336110994 183.73214521477792L211.0716371709404 205.29813332935694" stroke="#323232" stroke-width="2.0" stroke-dasharray="none" fill="none"/></g><g id="ProcessOnG1031"><path id="ProcessOnPath1032" d="M303.1339745962156 184.5L364.2139380484327 204.8302222155949" stroke="#323232" stroke-width="2.0" stroke-dasharray="none" fill="none"/></g><g id="ProcessOnG1033"><path id="ProcessOnPath1034" d="M189.9283628290596 228.70186667064306L168.0 261.0" stroke="#323232" stroke-width="2.0" stroke-dasharray="none" fill="none"/></g><g id="ProcessOnG1035"><path id="ProcessOnPath1036" d="M210.0716371709404 228.70186667064306L232.0 261.0" stroke="#323232" stroke-width="2.0" stroke-dasharray="none" fill="none"/></g><g id="ProcessOnG1037"><path id="ProcessOnPath1038" d="M386.233955556881 227.35721239031346L406.0 261.0" stroke="#323232" stroke-width="2.0" stroke-dasharray="none" fill="none"/></g><g id="ProcessOnG1039" transform="matrix(1.0,0.0,0.0,1.0,274.0,430.0)" opacity="1.0"><path id="ProcessOnPath1040" d="M0.0 0.0L32.0 0.0L32.0 32.0L0.0 32.0Z" stroke="none" stroke-width="0.0" stroke-dasharray="none" opacity="1.0" fill="none"/><g id="ProcessOnG1041" transform="matrix(1.0,0.0,0.0,1.0,0.0,7.875)"><text id="ProcessOnText1042" fill="#000000" font-size="13" x="15.0" y="13.325" font-family="微软雅黑" font-weight="normal" font-style="normal" text-decoration="none" family="微软雅黑" text-anchor="middle" size="13">(a)</text></g></g><g id="ProcessOnG1043" transform="matrix(1.0,0.0,0.0,1.0,618.0,160.0)" opacity="1.0"><path id="ProcessOnPath1044" d="M0.0 16.0C0.0 -5.333333333333333 32.0 -5.333333333333333 32.0 16.0C32.0 37.333333333333336 0.0 37.333333333333336 0.0 16.0Z" stroke="#323232" stroke-width="2.0" stroke-dasharray="none" opacity="1.0" fill="#ffffff"/><g id="ProcessOnG1045" transform="matrix(1.0,0.0,0.0,1.0,10.0,7.875)"><text id="ProcessOnText1046" fill="#000000" font-size="13" x="5.0" y="13.325" font-family="微软雅黑" font-weight="normal" font-style="normal" text-decoration="none" family="微软雅黑" text-anchor="middle" size="13">2</text></g></g><g id="ProcessOnG1047" transform="matrix(1.0,0.0,0.0,1.0,734.0,261.0)" opacity="1.0"><path id="ProcessOnPath1048" d="M0.0 16.0C0.0 -5.333333333333333 32.0 -5.333333333333333 32.0 16.0C32.0 37.333333333333336 0.0 37.333333333333336 0.0 16.0Z" stroke="#323232" stroke-width="2.0" stroke-dasharray="none" opacity="1.0" fill="#ffffff"/><g id="ProcessOnG1049" transform="matrix(1.0,0.0,0.0,1.0,10.0,7.875)"><text id="ProcessOnText1050" fill="#000000" font-size="13" x="5.0" y="13.325" font-family="微软雅黑" font-weight="normal" font-style="normal" text-decoration="none" family="微软雅黑" text-anchor="middle" size="13">7</text></g></g><g id="ProcessOnG1051" transform="matrix(1.0,0.0,0.0,1.0,702.0,201.0)" opacity="1.0"><path id="ProcessOnPath1052" d="M0.0 16.0C0.0 -5.333333333333333 32.0 -5.333333333333333 32.0 16.0C32.0 37.333333333333336 0.0 37.333333333333336 0.0 16.0Z" stroke="#323232" stroke-width="2.0" stroke-dasharray="none" opacity="1.0" fill="#ffffff"/><g id="ProcessOnG1053" transform="matrix(1.0,0.0,0.0,1.0,10.0,7.875)"><text id="ProcessOnText1054" fill="#000000" font-size="13" x="5.0" y="13.325" font-family="微软雅黑" font-weight="normal" font-style="normal" text-decoration="none" family="微软雅黑" text-anchor="middle" size="13">5</text></g></g><g id="ProcessOnG1055"><path id="ProcessOnPath1056" d="M647.1339745962156 184.5L708.2139380484327 204.83022221559486" stroke="#323232" stroke-width="2.0" stroke-dasharray="none" fill="none"/></g><g id="ProcessOnG1057"><path id="ProcessOnPath1058" d="M730.233955556881 227.35721239031346L750.0 261.0" stroke="#323232" stroke-width="2.0" stroke-dasharray="none" fill="none"/></g><g id="ProcessOnG1059" transform="matrix(1.0,0.0,0.0,1.0,766.0,321.0)" opacity="1.0"><path id="ProcessOnPath1060" d="M0.0 16.0C0.0 -5.333333333333333 32.0 -5.333333333333333 32.0 16.0C32.0 37.333333333333336 0.0 37.333333333333336 0.0 16.0Z" stroke="#323232" stroke-width="2.0" stroke-dasharray="none" opacity="1.0" fill="#ffffff"/><g id="ProcessOnG1061" transform="matrix(1.0,0.0,0.0,1.0,10.0,7.875)"><text id="ProcessOnText1062" fill="#000000" font-size="13" x="5.0" y="13.325" font-family="微软雅黑" font-weight="normal" font-style="normal" text-decoration="none" family="微软雅黑" text-anchor="middle" size="13">8</text></g></g><g id="ProcessOnG1063"><path id="ProcessOnPath1064" d="M760.1432743418808 289.4037333412861L782.0 321.0" stroke="#323232" stroke-width="2.0" stroke-dasharray="none" fill="none"/></g><g id="ProcessOnG1065" transform="matrix(1.0,0.0,0.0,1.0,702.0,321.0)" opacity="1.0"><path id="ProcessOnPath1066" d="M0.0 16.0C0.0 -5.333333333333333 32.0 -5.333333333333333 32.0 16.0C32.0 37.333333333333336 0.0 37.333333333333336 0.0 16.0Z" stroke="#323232" stroke-width="2.0" stroke-dasharray="none" opacity="1.0" fill="#ffffff"/><g id="ProcessOnG1067" transform="matrix(1.0,0.0,0.0,1.0,10.0,7.875)"><text id="ProcessOnText1068" fill="#000000" font-size="13" x="5.0" y="13.325" font-family="微软雅黑" font-weight="normal" font-style="normal" text-decoration="none" family="微软雅黑" text-anchor="middle" size="13">6</text></g></g><g id="ProcessOnG1069"><path id="ProcessOnPath1070" d="M739.1213203435597 287.87867965644034L718.0 321.0" stroke="#323232" stroke-width="2.0" stroke-dasharray="none" fill="none"/></g><g id="ProcessOnG1071" transform="matrix(1.0,0.0,0.0,1.0,667.0,378.0)" opacity="1.0"><path id="ProcessOnPath1072" d="M0.0 16.0C0.0 -5.333333333333333 32.0 -5.333333333333333 32.0 16.0C32.0 37.333333333333336 0.0 37.333333333333336 0.0 16.0Z" stroke="#323232" stroke-width="2.0" stroke-dasharray="none" opacity="1.0" fill="#ffffff"/><g id="ProcessOnG1073" transform="matrix(1.0,0.0,0.0,1.0,10.0,7.875)"><text id="ProcessOnText1074" fill="#000000" font-size="13" x="5.0" y="13.325" font-family="微软雅黑" font-weight="normal" font-style="normal" text-decoration="none" family="微软雅黑" text-anchor="middle" size="13">5</text></g></g><g id="ProcessOnG1075"><path id="ProcessOnPath1076" d="M709.5 350.1339745962156L692.3572123903134 381.766044443119" stroke="#323232" stroke-width="2.0" stroke-dasharray="none" fill="none"/></g><g id="ProcessOnG1077" transform="matrix(1.0,0.0,0.0,1.0,667.0,430.0)" opacity="1.0"><path id="ProcessOnPath1078" d="M0.0 0.0L32.0 0.0L32.0 32.0L0.0 32.0Z" stroke="none" stroke-width="0.0" stroke-dasharray="none" opacity="1.0" fill="none"/><g id="ProcessOnG1079" transform="matrix(1.0,0.0,0.0,1.0,0.0,7.875)"><text id="ProcessOnText1080" fill="#000000" font-size="13" x="15.0" y="13.325" font-family="微软雅黑" font-weight="normal" font-style="normal" text-decoration="none" family="微软雅黑" text-anchor="middle" size="13">(b)</text></g></g></g></g></svg>